<svg height='100px' width='100px'  fill="#f85e5e" xmlns="http://www.w3.org/2000/svg" viewBox="0 0 32 32" x="0px" y="0px"><title>healthcare, health, medical, doctor, mask, protect, surgical</title><g><path d="M21,14a1,1,0,0,1-1,1H12a1,1,0,0,1,0-2h8A1,1,0,0,1,21,14Zm-1,3H12a1,1,0,0,0,0,2h8a1,1,0,0,0,0-2Zm10-1a4,4,0,0,1-4,4H24.93a6.89,6.89,0,0,1-1.47,1.76,1,1,0,0,1-.65.24H9.19a1,1,0,0,1-.65-.24A6.89,6.89,0,0,1,7.07,20H6a4,4,0,0,1,0-8H7.07a6.89,6.89,0,0,1,1.47-1.76A1,1,0,0,1,9.19,10H22.81a1,1,0,0,1,.65.24A6.89,6.89,0,0,1,24.93,12H26A4,4,0,0,1,30,16ZM6.26,18a7.82,7.82,0,0,1,0-4H6a2,2,0,0,0,0,4ZM24,16a5.6,5.6,0,0,0-1.58-4H9.58A5.6,5.6,0,0,0,8,16a5.6,5.6,0,0,0,1.58,4H22.42A5.6,5.6,0,0,0,24,16Zm4,0a2,2,0,0,0-2-2h-.26a7.82,7.82,0,0,1,0,4H26A2,2,0,0,0,28,16Z"></path></g></svg>