<svg height='100px' width='100px'  fill="#1A1A1A" xmlns="http://www.w3.org/2000/svg" xmlns:xlink="http://www.w3.org/1999/xlink" version="1.1" x="0px" y="0px" viewBox="0 0 100 100" style="enable-background:new 0 0 100 100;" xml:space="preserve"><path d="M86.4997559,33.9790039c-0.5217896,0-1.032959,0.0546265-1.5380859,0.1350708v-1.8035278c0-1.6542969-1.3457031-3-3-3  H18.0383301c-1.6542969,0-3,1.3457031-3,3v1.8036499c-0.5053101-0.0804443-1.0166016-0.1351929-1.5385742-0.1351929  c-6.8735352,0-12.465332,7.1870117-12.465332,16.0209961s5.5917969,16.0214844,12.465332,16.0214844  c0.5219727,0,1.0332642-0.0547485,1.5385742-0.1351929v1.8031616c0,1.6542969,1.3457031,3,3,3h63.9233398  c1.6542969,0,3-1.3457031,3-3v-1.8031006c0.505127,0.0804443,1.0162964,0.1351318,1.5380859,0.1351318  c6.8740234,0,12.4658203-7.1875,12.4658203-16.0214844S93.3737793,33.9790039,86.4997559,33.9790039z M15.0383301,63.8525391  c-0.50354,0.1000977-1.0145874,0.1689453-1.5385742,0.1689453c-5.7705078,0-10.465332-6.2900391-10.465332-14.0214844  c0-7.730957,4.6948242-14.0209961,10.465332-14.0209961c0.5239868,0,1.0350342,0.0688477,1.5385742,0.1689453V63.8525391z   M82.9616699,67.6894531c0,0.5517578-0.4482422,1-1,1H18.0383301c-0.5512695,0-1-0.4482422-1-1V32.3105469  c0-0.5512695,0.4487305-1,1-1h63.9233398c0.5517578,0,1,0.4487305,1,1V67.6894531z M86.4997559,64.0214844  c-0.5238037,0-1.034668-0.0687866-1.5380859-0.1688232v-27.704834c0.503418-0.1000366,1.0142822-0.1688232,1.5380859-0.1688232  c5.7705078,0,10.4658203,6.2900391,10.4658203,14.0209961C96.9655762,57.7314453,92.2702637,64.0214844,86.4997559,64.0214844z   M22.0378418,65.6894531c0,0.5527344-0.4477539,1-1,1h-1c-0.5522461,0-1-0.4472656-1-1v-1c0-0.5527344,0.4477539-1,1-1  s1,0.4472656,1,1C21.5900879,64.6894531,22.0378418,65.1367188,22.0378418,65.6894531z M19.0378418,47.9013672v-2.0986328  c0-0.5522461,0.4477539-1,1-1s1,0.4477539,1,1v2.0986328c0,0.5522461-0.4477539,1-1,1S19.0378418,48.4536133,19.0378418,47.9013672z   M19.0378418,60.4921875v-2.0986328c0-0.5527344,0.4477539-1,1-1s1,0.4472656,1,1v2.0986328c0,0.5527344-0.4477539,1-1,1  S19.0378418,61.0449219,19.0378418,60.4921875z M19.0378418,54.1972656v-2.0986328c0-0.5527344,0.4477539-1,1-1s1,0.4472656,1,1  v2.0986328c0,0.5527344-0.4477539,1-1,1S19.0378418,54.75,19.0378418,54.1972656z M19.0378418,41.605957v-2.0981445  c0-0.5522461,0.4477539-1,1-1s1,0.4477539,1,1v2.0981445c0,0.5522461-0.4477539,1-1,1S19.0378418,42.1582031,19.0378418,41.605957z   M22.0378418,34.3110352c0,0.5522461-0.4477539,1-1,1c0,0.5522461-0.4477539,1-1,1s-1-0.4477539-1-1v-1c0-0.5522461,0.4477539-1,1-1  h1C21.5900879,33.3110352,22.0378418,33.7587891,22.0378418,34.3110352z M42.0085449,34.3110352c0-0.5522461,0.4477539-1,1-1  h1.9975586c0.5522461,0,0.9995117,0.4477539,0.9995117,1s-0.4472656,1-0.9995117,1h-1.9975586  C42.4562988,35.3110352,42.0085449,34.8632813,42.0085449,34.3110352z M65.9763184,34.3110352c0-0.5522461,0.4472656-1,1-1  h1.9980469c0.5527344,0,1,0.4477539,1,1s-0.4472656,1-1,1h-1.9980469  C66.423584,35.3110352,65.9763184,34.8632813,65.9763184,34.3110352z M59.9841309,34.3110352c0-0.5522461,0.4472656-1,1-1h1.9980469  c0.5527344,0,1,0.4477539,1,1s-0.4472656,1-1,1h-1.9980469C60.4313965,35.3110352,59.9841309,34.8632813,59.9841309,34.3110352z   M36.0163574,34.3110352c0-0.5522461,0.4477539-1,1-1h1.9975586c0.5522461,0,1,0.4477539,1,1s-0.4477539,1-1,1h-1.9975586  C36.4641113,35.3110352,36.0163574,34.8632813,36.0163574,34.3110352z M53.9929199,34.3110352c0-0.5522461,0.4472656-1,1-1  h1.9970703c0.5527344,0,1,0.4477539,1,1s-0.4472656,1-1,1h-1.9970703  C54.4401855,35.3110352,53.9929199,34.8632813,53.9929199,34.3110352z M30.0246582,34.3110352c0-0.5522461,0.4477539-1,1-1  h1.9970703c0.5522461,0,1,0.4477539,1,1s-0.4477539,1-1,1h-1.9970703  C30.4724121,35.3110352,30.0246582,34.8632813,30.0246582,34.3110352z M48.0007324,34.3110352c0-0.5522461,0.4472656-1,1-1  h1.9970703c0.5527344,0,1,0.4477539,1,1s-0.4472656,1-1,1h-1.9970703  C48.447998,35.3110352,48.0007324,34.8632813,48.0007324,34.3110352z M71.9685059,34.3110352c0-0.5522461,0.4472656-1,1-1h1.9970703  c0.5527344,0,1,0.4477539,1,1s-0.4472656,1-1,1h-1.9970703C72.4157715,35.3110352,71.9685059,34.8632813,71.9685059,34.3110352z   M24.0324707,34.3110352c0-0.5522461,0.4477539-1,1-1h1.9975586c0.5522461,0,1,0.4477539,1,1s-0.4477539,1-1,1h-1.9975586  C24.4802246,35.3110352,24.0324707,34.8632813,24.0324707,34.3110352z M80.9606934,34.3110352v1c0,0.5522461-0.4472656,1-1,1  s-1-0.4477539-1-1c-0.5527344,0-1-0.4477539-1-1s0.4472656-1,1-1h1  C80.5134277,33.3110352,80.9606934,33.7587891,80.9606934,34.3110352z M80.9606934,52.0986328v2.0986328  c0,0.5527344-0.4472656,1-1,1s-1-0.4472656-1-1v-2.0986328c0-0.5527344,0.4472656-1,1-1  S80.9606934,51.5458984,80.9606934,52.0986328z M80.9606934,58.3935547v2.0986328c0,0.5527344-0.4472656,1-1,1s-1-0.4472656-1-1  v-2.0986328c0-0.5527344,0.4472656-1,1-1S80.9606934,57.8408203,80.9606934,58.3935547z M80.9606934,45.8032227v2.0986328  c0,0.5522461-0.4472656,1-1,1s-1-0.4477539-1-1v-2.0986328c0-0.5522461,0.4472656-1,1-1  S80.9606934,45.2509766,80.9606934,45.8032227z M80.9606934,39.5078125v2.0986328c0,0.5522461-0.4472656,1-1,1s-1-0.4477539-1-1  v-2.0986328c0-0.5522461,0.4472656-1,1-1S80.9606934,38.9555664,80.9606934,39.5078125z M80.9606934,64.6894531v1  c0,0.5527344-0.4472656,1-1,1h-1c-0.5527344,0-1-0.4472656-1-1s0.4472656-1,1-1c0-0.5527344,0.4472656-1,1-1  S80.9606934,64.1367188,80.9606934,64.6894531z M40.0144043,65.6894531c0,0.5527344-0.4477539,1-1,1H37.017334  c-0.5522461,0-1-0.4472656-1-1s0.4477539-1,1-1h1.9970703C39.5666504,64.6894531,40.0144043,65.1367188,40.0144043,65.6894531z   M57.9909668,65.6894531c0,0.5527344-0.4472656,1-1,1h-1.9980469c-0.5527344,0-1-0.4472656-1-1s0.4472656-1,1-1h1.9980469  C57.5437012,64.6894531,57.9909668,65.1367188,57.9909668,65.6894531z M51.9987793,65.6894531c0,0.5527344-0.4472656,1-1,1  h-1.9980469c-0.5527344,0-1-0.4472656-1-1s0.4472656-1,1-1h1.9980469  C51.5515137,64.6894531,51.9987793,65.1367188,51.9987793,65.6894531z M75.9665527,65.6894531c0,0.5527344-0.4472656,1-1,1  h-1.9970703c-0.5527344,0-1-0.4472656-1-1s0.4472656-1,1-1h1.9970703  C75.5192871,64.6894531,75.9665527,65.1367188,75.9665527,65.6894531z M69.9743652,65.6894531c0,0.5527344-0.4472656,1-1,1  h-1.9970703c-0.5527344,0-1-0.4472656-1-1s0.4472656-1,1-1h1.9970703  C69.5270996,64.6894531,69.9743652,65.1367188,69.9743652,65.6894531z M63.9821777,65.6894531c0,0.5527344-0.4472656,1-1,1  h-1.9970703c-0.5527344,0-1-0.4472656-1-1s0.4472656-1,1-1h1.9970703  C63.5349121,64.6894531,63.9821777,65.1367188,63.9821777,65.6894531z M28.0305176,65.6894531c0,0.5527344-0.4477539,1-1,1  H25.032959c-0.5522461,0-1-0.4472656-1-1s0.4477539-1,1-1h1.9975586  C27.5827637,64.6894531,28.0305176,65.1367188,28.0305176,65.6894531z M46.0065918,65.6894531c0,0.5527344-0.4472656,1-1,1  h-1.9975586c-0.5522461,0-1-0.4472656-1-1s0.4477539-1,1-1h1.9975586  C45.5593262,64.6894531,46.0065918,65.1367188,46.0065918,65.6894531z M34.0222168,65.6894531c0,0.5527344-0.4477539,1-1,1  h-1.9970703c-0.5522461,0-1-0.4472656-1-1s0.4477539-1,1-1h1.9970703  C33.5744629,64.6894531,34.0222168,65.1367188,34.0222168,65.6894531z M71.3435059,42.2788086c0,0.5522461-0.4472656,1-1,1h-40.6875  c-0.5522461,0-1-0.4477539-1-1s0.4477539-1,1-1h40.6875C70.8962402,41.2788086,71.3435059,41.7265625,71.3435059,42.2788086z   M71.3435059,57.7216797c0,0.5527344-0.4472656,1-1,1h-40.6875c-0.5522461,0-1-0.4472656-1-1s0.4477539-1,1-1h40.6875  C70.8962402,56.7216797,71.3435059,57.1689453,71.3435059,57.7216797z"></path></svg>